<?xml version="1.0" encoding="utf-8"?>
<!-- Generator: Adobe Illustrator 19.1.0, SVG Export Plug-In . SVG Version: 6.00 Build 0)  -->
<svg version="1.1" id="kapacitor" xmlns="http://www.w3.org/2000/svg" xmlns:xlink="http://www.w3.org/1999/xlink" x="0px" y="0px"
	 viewBox="0 0 900 560" style="enable-background:new 0 0 900 560;" xml:space="preserve">
<style type="text/css">
	.st0{fill:url(#background_1_);}
	.st1{opacity:0.8;fill:#1F242D;}
	.st2{fill:none;stroke:#FFFFFF;stroke-width:11;stroke-linecap:round;stroke-miterlimit:10;}
	.st3{fill:#FFFFFF;}
	.st4{opacity:0.5;fill:url(#background_-_fade_1_);}
	.st5{fill:#1F242D;}
	.st6{fill:url(#SVGID_1_);}
	.st7{fill:#7CE490;}
	.st8{fill:url(#SVGID_2_);}
	.st9{fill:url(#SVGID_3_);}
	.st10{fill:url(#SVGID_4_);}
	.st11{fill:#3AC69A;}
	.st12{fill:url(#SVGID_5_);}
	.st13{fill:url(#SVGID_6_);}
	.st14{fill:url(#SVGID_7_);}
	.st15{fill:url(#SVGID_8_);}
	.st16{fill:url(#SVGID_9_);}
	.st17{fill:url(#SVGID_10_);}
</style>
<radialGradient id="background_1_" cx="191.0345" cy="2318.272" r="129.06" gradientTransform="matrix(0.9563 0.2924 -0.2924 0.9563 952.2302 -2017.9552)" gradientUnits="userSpaceOnUse">
	<stop  offset="0.1675" style="stop-color:#3AC69A"/>
	<stop  offset="0.931" style="stop-color:#7CE490"/>
</radialGradient>
<path id="background" class="st0" d="M430.8,121.2c-4.9,0-9.8,1.9-13.5,5.3l-85.5,79.7c-5.2,4.8-7.4,12-5.8,18.9L352.4,339
	c1.6,6.9,6.7,12.4,13.5,14.5l111.7,34.2c1.9,0.6,3.9,0.9,5.8,0.9c4.9,0,9.8-1.9,13.5-5.3l85.5-79.7c5.2-4.8,7.4-12,5.8-18.9
	l-26.3-113.9c-1.6-6.9-6.7-12.4-13.5-14.5l-111.7-34.2C434.7,121.5,432.8,121.2,430.8,121.2L430.8,121.2z"/>
<path id="rear_edges" class="st1" d="M535.8,175.6l-52.1,12c-3.6,0.8-8.5-0.7-11-3.4l-36.5-39.1c-2.5-2.7-4.8-5-5.1-5.1
	c-0.3-0.1-3.2,2.2-5.9,4.7l-75.7,70.6c-2.7,2.5-5,4.8-5.2,5c0,0,0,0,0,0.3c0,0.3,0,0.3,0,0.3c0.2,0.3,2.4,2.7,4.9,5.4l36.5,39.1
	c2.5,2.7,3.7,7.7,2.6,11.2l-15.6,51.2c-1.1,3.5-2,6.6-2,7c0,0,0,0,0.1,0.3c0.1,0.3,0.1,0.3,0.1,0.3c0.3,0.2,3.4,1.2,6.9,2.2l99,30.3
	c3.5,1.1,6.6,2,7,2c0,0,0,0,0.3-0.1c0.2-0.1,0.3-0.2,0.4-0.4c0-0.1,0-0.1,0-0.1c0-0.1,0.9-3,2-6.5l15.6-51.2c1.1-3.5,4.9-7,8.4-7.9
	l52.1-12c3.6-0.8,6.6-1.6,6.8-1.6c0.1-0.1,0.4-0.4,0.4-0.4c0,0,0,0,0,0c0.1-0.2,0.1-0.2,0.1-0.2c0-0.3-0.7-3.5-1.5-7.1l-23.3-100.9
	c-0.8-3.6-1.6-6.7-1.7-7c0,0,0,0-0.2-0.2c-0.3-0.2-0.3-0.2-0.3-0.2C542.6,174.1,539.4,174.8,535.8,175.6z M386.9,263.6l-35.4-38
	c-2.5-2.7-2.4-6.9,0.3-9.4l74.1-69.1c2.7-2.5,6.9-2.4,9.4,0.3l35.4,38c2.5,2.7,2.4,6.9-0.3,9.4l-74.1,69.1
	C393.6,266.4,389.4,266.3,386.9,263.6z M499.8,311.3L484.6,361c-1.1,3.5-4.8,5.5-8.3,4.4l-96.9-29.6c-3.5-1.1-5.5-4.8-4.4-8.3
	l15.2-49.7c1.1-3.5,4.8-5.5,8.3-4.4l96.9,29.6C498.9,304.1,500.9,307.8,499.8,311.3z M495.2,300.6l-95.3-29.1
	c-3.5-1.1-4.2-4-1.5-6.5l72.9-68c2.7-2.5,5.5-1.6,6.4,1.9l22.4,97.1C500.9,299.7,498.7,301.7,495.2,300.6z M543.2,183l22.8,98.7
	c0.8,3.6-1.4,7.2-5,8l-50.6,11.7c-3.6,0.8-7.2-1.4-8-5l-9.9-42.9c-0.8-3.6-2.2-9.4-3-13l-9.9-42.9c-0.8-3.6,1.4-7.2,5-8l50.6-11.7
	C538.8,177.2,542.4,179.4,543.2,183z"/>
<g id="nucleus">
	<g id="branch_2_">
		<g>
			<line class="st2" x1="457.1" y1="254.9" x2="514.9" y2="316.9"/>
			<g>
				<circle class="st3" cx="514.9" cy="316.9" r="7"/>
			</g>
		</g>
	</g>
	<g id="branch_1_">
		<g>
			<line class="st2" x1="457.1" y1="254.9" x2="481.9" y2="173.8"/>
			<g>
				<circle class="st3" cx="481.9" cy="173.8" r="7"/>
			</g>
		</g>
	</g>
	<g id="branch">
		<g>
			<line class="st2" x1="457.1" y1="254.9" x2="374.5" y2="273.9"/>
			<g>
				<circle class="st3" cx="374.5" cy="273.9" r="7"/>
			</g>
		</g>
	</g>
	<circle id="center" class="st3" cx="457.1" cy="254.9" r="17.8"/>
</g>
<radialGradient id="background_-_fade_1_" cx="191.0345" cy="2318.272" r="129.06" gradientTransform="matrix(0.9563 0.2924 -0.2924 0.9563 952.2302 -2017.9552)" gradientUnits="userSpaceOnUse">
	<stop  offset="0.1675" style="stop-color:#3AC69A"/>
	<stop  offset="0.931" style="stop-color:#7CE490"/>
</radialGradient>
<path id="background_-_fade" class="st4" d="M430.8,121.2c-4.9,0-9.8,1.9-13.5,5.3l-85.5,79.7c-5.2,4.8-7.4,12-5.8,18.9L352.4,339
	c1.6,6.9,6.7,12.4,13.5,14.5l111.7,34.2c1.9,0.6,3.9,0.9,5.8,0.9c4.9,0,9.8-1.9,13.5-5.3l85.5-79.7c5.2-4.8,7.4-12,5.8-18.9
	l-26.3-113.9c-1.6-6.9-6.7-12.4-13.5-14.5l-111.7-34.2C434.7,121.5,432.8,121.2,430.8,121.2L430.8,121.2z"/>
<path id="front_edges" class="st5" d="M544.6,171.2c-0.2-0.1-0.5-0.2-0.7-0.3l-111.7-34.2c-0.3-0.1-0.5-0.1-0.8-0.2
	c-0.1,0-0.1,0-0.2,0c-0.5,0-1,0-1.5,0.1c-0.1,0-0.1,0-0.2,0.1c-0.5,0.2-1,0.4-1.4,0.7c-0.1,0-0.1,0.1-0.2,0.1c0,0-0.1,0.1-0.1,0.1
	l-85.5,79.7c0,0-0.1,0.1-0.1,0.1c-0.1,0.1-0.1,0.1-0.1,0.2c-0.2,0.2-0.3,0.4-0.4,0.6c0,0,0,0,0,0c-0.1,0.2-0.2,0.4-0.3,0.7
	c0,0.1,0,0.1-0.1,0.2c-0.1,0.2-0.1,0.4-0.2,0.7c0,0,0,0,0,0.1c0,0.2-0.1,0.5-0.1,0.8c0,0.1,0,0.1,0,0.2c0,0.3,0,0.5,0.1,0.8
	l26.3,113.9c0.1,0.3,0.1,0.5,0.3,0.7c0,0.1,0.1,0.1,0.1,0.2c0.1,0.2,0.2,0.5,0.4,0.7c0,0,0,0,0,0c0.1,0.2,0.3,0.4,0.5,0.6
	c0,0,0.1,0.1,0.1,0.1c0.2,0.2,0.4,0.3,0.6,0.5c0,0,0,0,0,0c0,0,0,0,0,0c0.2,0.1,0.4,0.2,0.7,0.3c0.1,0,0.1,0.1,0.2,0.1
	c0.1,0,0.1,0,0.2,0.1L482.1,373c0.1,0,0.1,0,0.2,0c0.1,0,0.1,0,0.2,0c0.2,0.1,0.5,0.1,0.7,0.1c0,0,0,0,0,0c0.3,0,0.5,0,0.8,0
	c0.1,0,0.1,0,0.2,0c0.2,0,0.5-0.1,0.7-0.2c0,0,0.1,0,0.1,0c0.2-0.1,0.5-0.2,0.7-0.3c0.1,0,0.1-0.1,0.2-0.1c0.2-0.1,0.4-0.3,0.6-0.5
	l85.5-79.7c0.2-0.2,0.3-0.3,0.4-0.5c0.1-0.2,0.3-0.4,0.4-0.5l0,0c0.1-0.2,0.2-0.4,0.3-0.7c0-0.1,0-0.1,0.1-0.2
	c0.1-0.2,0.1-0.5,0.2-0.7c0,0,0,0,0-0.1c0-0.2,0-0.3,0-0.5c0-0.1,0-0.1,0-0.2c0-0.2,0-0.3,0-0.5c0-0.1,0-0.3-0.1-0.4
	c0,0,0-0.1,0-0.1l-26.3-113.9c0-0.1,0-0.1-0.1-0.2c0-0.1,0-0.1-0.1-0.2c-0.1-0.2-0.2-0.5-0.3-0.7c0,0,0,0,0,0
	c-0.1-0.2-0.3-0.4-0.4-0.6c0-0.1-0.1-0.1-0.1-0.2c-0.1-0.2-0.3-0.3-0.5-0.5c0,0,0,0-0.1-0.1c-0.2-0.2-0.4-0.3-0.6-0.4
	C544.7,171.3,544.7,171.3,544.6,171.2z M366.2,207.4l49.9-46.5c3.1-2.9,4.7-2,3.4,2.1l-9.6,31.4c-1.2,4.1-5.7,8.2-9.8,9.2l-31.9,7.4
	C363.9,211.9,363.1,210.3,366.2,207.4z M480.9,231.5c4.1,1.2,10.8,3.3,14.9,4.5l11,3.4c4.1,1.2,4.9,4.7,1.7,7.6l-62.8,58.6
	c-3.1,2.9-6.5,1.9-7.4-2.3l-19.3-83.7c-1-4.2,1.6-6.5,5.7-5.3L480.9,231.5z M373.2,321.7l-20.8-90.1c-1-4.2,1.7-8.4,5.8-9.3
	l41.9-9.7c4.2-1,8.4,1.7,9.3,5.8l20.8,90.1c1,4.2-1.7,8.4-5.8,9.3l-41.9,9.7C378.4,328.5,374.2,325.8,373.2,321.7z M461.4,357.4
	l-65.2-19.9c-4.1-1.3-4-3.1,0.1-4l31.9-7.4c4.2-1,10,0.8,12.9,3.9l22.4,24C466.5,357.1,465.5,358.6,461.4,357.4z M557.3,283.1
	c2.9,3.1,2.7,8.1-0.4,11l-28.1,26.2c-3.1,2.9-8.2,7.7-11.4,10.6l-28.1,26.2c-3.1,2.9-8.1,2.7-11-0.4L449,325.3
	c-2.9-3.1-2.7-8.1,0.4-11l28.1-26.2c3.1-2.9,8.2-7.7,11.4-10.6l28.1-26.2c3.1-2.9,8.1-2.7,11,0.4L557.3,283.1z M543.7,199.9
	l15.3,66.4c1,4.2-0.6,5-3.6,1.9l-22.4-24c-2.9-3.1-4.3-9-3-13.1l9.6-31.4C541,195.7,542.8,195.7,543.7,199.9z M534.8,185.6
	l-12.6,41.2c-1.2,4.1-5.6,6.4-9.7,5.2l-45.2-13.8c-4.1-1.2-10.8-3.3-14.9-4.5l-28.4-8.7c-4.1-1.3-6.4-5.6-5.2-9.7l12.6-41.2
	c1.2-4.1,5.6-6.4,9.7-5.2l88.4,27C533.7,177.1,536,181.5,534.8,185.6z"/>
<g id="appendage">
	<g id="lines">
		<linearGradient id="SVGID_1_" gradientUnits="userSpaceOnUse" x1="529.4839" y1="332.2319" x2="586.4839" y2="393.8986">
			<stop  offset="0" style="stop-color:#FFFFFF"/>
			<stop  offset="1" style="stop-color:#7CE490"/>
		</linearGradient>
		<path class="st6" d="M594.6,403.4c-0.3,0-0.6-0.1-0.8-0.4l-79.7-85.4c-0.4-0.4-0.4-1.2,0.1-1.6c0.4-0.4,1.2-0.4,1.6,0.1l79.7,85.4
			c0.4,0.4,0.4,1.2-0.1,1.6C595.2,403.3,594.9,403.4,594.6,403.4z"/>
		<path class="st7" d="M463.4,525.8c-0.3,0-0.6-0.1-0.8-0.4c-0.4-0.4-0.4-1.2,0.1-1.6l131.2-122.3c0.4-0.4,1.2-0.4,1.6,0.1
			c0.4,0.4,0.4,1.2-0.1,1.6L464.2,525.5C464,525.7,463.7,525.8,463.4,525.8z"/>
		<path class="st7" d="M594.6,403.4C594.6,403.4,594.6,403.4,594.6,403.4l-57-2c-0.6,0-1.1-0.5-1.1-1.1c0-0.6,0.6-1.1,1.1-1.1
			l56.9,2c0.6,0,1.1,0.5,1.1,1.1C595.7,403,595.2,403.4,594.6,403.4z"/>
		<linearGradient id="SVGID_2_" gradientUnits="userSpaceOnUse" x1="594.3574" y1="413.1904" x2="592.8773" y2="448.3441">
			<stop  offset="0" style="stop-color:#7CE490"/>
			<stop  offset="1" style="stop-color:#3AC69A"/>
		</linearGradient>
		<path class="st8" d="M592.6,460.4C592.6,460.4,592.6,460.4,592.6,460.4c-0.7,0-1.1-0.5-1.1-1.1l2-56.9c0-0.6,0.5-1.1,1.1-1.1
			c0.6,0,1.1,0.5,1.1,1.1l-2,56.9C593.7,459.9,593.2,460.4,592.6,460.4z"/>
		<linearGradient id="SVGID_3_" gradientUnits="userSpaceOnUse" x1="505.8457" y1="387.9329" x2="452.9302" y2="434.9278">
			<stop  offset="0" style="stop-color:#7CE490"/>
			<stop  offset="1" style="stop-color:#3AC69A"/>
		</linearGradient>
		<path class="st9" d="M497.3,439.1c-0.1,0-0.2,0-0.3,0l-71.1-21.7c-0.6-0.2-0.9-0.8-0.7-1.4c0.2-0.6,0.8-0.9,1.4-0.7l70.5,21.6
			l39.9-37.2c0.4-0.4,1.2-0.4,1.6,0.1c0.4,0.4,0.4,1.2-0.1,1.6l-40.4,37.6C497.9,439,497.6,439.1,497.3,439.1z"/>
		<linearGradient id="SVGID_4_" gradientUnits="userSpaceOnUse" x1="500.361" y1="481.5536" x2="345.3148" y2="438.9992">
			<stop  offset="0" style="stop-color:#7CE490"/>
			<stop  offset="1" style="stop-color:#3AC69A"/>
		</linearGradient>
		<path class="st10" d="M505.3,486.7c-0.1,0-0.2,0-0.3,0l-169.2-51.7c-0.6-0.2-0.9-0.8-0.7-1.4c0.2-0.6,0.8-0.9,1.4-0.7l169.2,51.7
			c0.6,0.2,0.9,0.8,0.7,1.4C506.2,486.4,505.8,486.7,505.3,486.7z"/>
	</g>
	<g id="dots_2_">
		<circle class="st7" cx="594.6" cy="402.3" r="8.9"/>
		<g>
			<path class="st5" d="M463.4,543.4c-8.8,0-16.3-6-18.3-14.5c-2.3-10.1,4-20.2,14.1-22.5c1.4-0.3,2.8-0.5,4.2-0.5
				c8.8,0,16.3,6,18.3,14.5c1.1,4.9,0.3,9.9-2.4,14.2s-6.8,7.2-11.7,8.3C466.2,543.3,464.8,543.4,463.4,543.4
				C463.4,543.4,463.4,543.4,463.4,543.4z"/>
			<path class="st7" d="M463.4,506.9c8.1,0,15.4,5.6,17.3,13.8c2.2,9.6-3.8,19.1-13.3,21.3c-1.3,0.3-2.7,0.5-4,0.5
				c-8.1,0-15.4-5.6-17.3-13.8c-2.2-9.6,3.8-19.1,13.3-21.3C460.8,507,462.1,506.9,463.4,506.9 M463.4,504.9c-1.5,0-3,0.2-4.5,0.5
				c-5.1,1.2-9.5,4.3-12.3,8.8s-3.7,9.8-2.5,14.9c2.1,9,10,15.3,19.2,15.3c1.5,0,3-0.2,4.5-0.5c10.6-2.5,17.3-13.1,14.8-23.7
				C480.6,511.2,472.7,504.9,463.4,504.9L463.4,504.9z"/>
		</g>
		<circle class="st7" cx="537.7" cy="400.3" r="8.9"/>
		<circle class="st11" cx="426.1" cy="416.1" r="8.9"/>
		<circle class="st11" cx="336.2" cy="433.8" r="8.9"/>
		<circle class="st11" cx="592.6" cy="459.2" r="8.9"/>
	</g>
</g>
<g id="appendage_1_">
	<g id="lines_1_">
		<linearGradient id="SVGID_5_" gradientUnits="userSpaceOnUse" x1="487.7538" y1="154.142" x2="513.0872" y2="72.4753">
			<stop  offset="0" style="stop-color:#FFFFFF"/>
			<stop  offset="1" style="stop-color:#7CE490"/>
		</linearGradient>
		<path class="st12" d="M481.9,174.9c-0.1,0-0.2,0-0.3,0c-0.6-0.2-0.9-0.8-0.7-1.4L515,61.8c0.2-0.6,0.8-0.9,1.4-0.7
			c0.6,0.2,0.9,0.8,0.7,1.4L483,174.1C482.8,174.6,482.4,174.9,481.9,174.9z"/>
		<path class="st7" d="M687.6,115.6c-0.1,0-0.2,0-0.3,0L515.7,63.1c-0.6-0.2-0.9-0.8-0.7-1.4c0.2-0.6,0.8-0.9,1.4-0.7l171.6,52.5
			c0.6,0.2,0.9,0.8,0.7,1.4C688.5,115.3,688.1,115.6,687.6,115.6z"/>
		<path class="st7" d="M542.8,113.5c-0.4,0-0.8-0.2-1-0.6l-26.7-50.3c-0.3-0.5-0.1-1.2,0.5-1.5c0.5-0.3,1.2-0.1,1.5,0.5l26.7,50.3
			c0.3,0.5,0.1,1.2-0.5,1.5C543.2,113.4,543,113.5,542.8,113.5z"/>
		<path class="st7" d="M516.1,63.2c-0.4,0-0.8-0.2-1-0.6c-0.3-0.5-0.1-1.2,0.5-1.5l50.3-26.7c0.5-0.3,1.2-0.1,1.5,0.5
			c0.3,0.5,0.1,1.2-0.5,1.5l-50.3,26.7C516.4,63.1,516.2,63.2,516.1,63.2z"/>
		<linearGradient id="SVGID_6_" gradientUnits="userSpaceOnUse" x1="562.6218" y1="114.4045" x2="618.4977" y2="182.4917">
			<stop  offset="0" style="stop-color:#7CE490"/>
			<stop  offset="1" style="stop-color:#3AC69A"/>
		</linearGradient>
		<path class="st13" d="M612.3,202.1c-0.5,0-1-0.3-1.1-0.9l-16.6-71.8l-52.1-15.9c-0.6-0.2-0.9-0.8-0.7-1.4c0.2-0.6,0.8-0.9,1.4-0.7
			l52.8,16.1c0.4,0.1,0.7,0.4,0.8,0.8l16.7,72.5c0.1,0.6-0.2,1.2-0.8,1.3C612.5,202.1,612.4,202.1,612.3,202.1z"/>
		<linearGradient id="SVGID_7_" gradientUnits="userSpaceOnUse" x1="635.2458" y1="108.2199" x2="670.0295" y2="259.1957">
			<stop  offset="0" style="stop-color:#7CE490"/>
			<stop  offset="1" style="stop-color:#3AC69A"/>
		</linearGradient>
		<path class="st14" d="M672.6,271.3c-0.5,0-1-0.3-1.1-0.9L631.7,98c-0.1-0.6,0.2-1.2,0.8-1.3c0.6-0.1,1.2,0.2,1.3,0.8l39.8,172.4
			c0.1,0.6-0.2,1.2-0.8,1.3C672.8,271.2,672.7,271.3,672.6,271.3z"/>
	</g>
	<g id="dots">
		<circle class="st7" cx="516.1" cy="62.1" r="8.9"/>
		<circle class="st7" cx="687.6" cy="114.5" r="8.9"/>
		<circle class="st7" cx="542.8" cy="112.4" r="8.9"/>
		<circle class="st11" cx="612.3" cy="201.1" r="8.9"/>
		<circle class="st11" cx="672.6" cy="270.1" r="8.9"/>
		<g>
			<path class="st5" d="M566.3,54.1c-8.8,0-16.3-6-18.3-14.5c-2.3-10.1,4-20.2,14.1-22.5c1.4-0.3,2.8-0.5,4.2-0.5
				c8.8,0,16.3,6,18.3,14.5c1.1,4.9,0.3,9.9-2.4,14.2c-2.7,4.2-6.8,7.2-11.7,8.3C569.2,53.9,567.8,54.1,566.3,54.1z"/>
			<path class="st7" d="M566.4,17.6c8.1,0,15.4,5.6,17.3,13.8c2.2,9.6-3.8,19.1-13.3,21.3c-1.3,0.3-2.7,0.5-4,0.5
				c-8.1,0-15.4-5.6-17.3-13.8c-2.2-9.6,3.8-19.1,13.3-21.3C563.7,17.7,565.1,17.6,566.4,17.6 M566.4,15.6L566.4,15.6
				c-1.5,0-3,0.2-4.5,0.5c-10.6,2.5-17.3,13.1-14.8,23.7c2.1,9,10,15.3,19.2,15.3c1.5,0,3-0.2,4.5-0.5c10.6-2.5,17.3-13.1,14.8-23.7
				C583.5,21.9,575.6,15.6,566.4,15.6L566.4,15.6z"/>
		</g>
	</g>
</g>
<g id="appendage_2_">
	<g id="lines_2_">
		<linearGradient id="SVGID_8_" gradientUnits="userSpaceOnUse" x1="352.3773" y1="278.0285" x2="271.7106" y2="299.0285">
			<stop  offset="0" style="stop-color:#FFFFFF"/>
			<stop  offset="1" style="stop-color:#7CE490"/>
		</linearGradient>
		<path class="st15" d="M260.7,301.3c-0.5,0-1-0.3-1.1-0.9c-0.1-0.6,0.2-1.2,0.8-1.3l113.8-26.3c0.6-0.1,1.2,0.2,1.3,0.8
			c0.1,0.6-0.2,1.2-0.8,1.3l-113.8,26.3C260.9,301.3,260.8,301.3,260.7,301.3z"/>
		<path class="st7" d="M260.7,301.3c-0.5,0-1-0.3-1.1-0.9l-40.4-174.8c-0.1-0.6,0.2-1.2,0.8-1.3c0.6-0.1,1.2,0.2,1.3,0.8L261.8,300
			c0.1,0.6-0.2,1.2-0.8,1.3C260.9,301.3,260.8,301.3,260.7,301.3z"/>
		<path class="st7" d="M260.7,301.3c-0.2,0-0.4-0.1-0.6-0.2c-0.5-0.3-0.7-1-0.4-1.5l30.2-48.3c0.3-0.5,1-0.7,1.5-0.4
			c0.5,0.3,0.7,1,0.4,1.5l-30.2,48.3C261.4,301.1,261.1,301.3,260.7,301.3z"/>
		<linearGradient id="SVGID_9_" gradientUnits="userSpaceOnUse" x1="251.3378" y1="294.542" x2="221.3646" y2="275.485">
			<stop  offset="0" style="stop-color:#7CE490"/>
			<stop  offset="1" style="stop-color:#3AC69A"/>
		</linearGradient>
		<path class="st16" d="M260.7,301.3c-0.2,0-0.4-0.1-0.6-0.2L211.8,271c-0.5-0.3-0.7-1-0.4-1.5c0.3-0.5,1-0.7,1.5-0.4l48.3,30.2
			c0.5,0.3,0.7,1,0.4,1.5C261.4,301.1,261.1,301.3,260.7,301.3z"/>
		<path class="st7" d="M290.9,253c-0.5,0-1-0.3-1.1-0.9l-12.4-53.8c-0.1-0.4,0-0.8,0.3-1.1l54.4-50.7c0.4-0.4,1.2-0.4,1.6,0.1
			c0.4,0.4,0.4,1.2-0.1,1.6l-53.9,50.3l12.3,53.1c0.1,0.6-0.2,1.2-0.8,1.3C291,253,291,253,290.9,253z"/>
		<linearGradient id="SVGID_10_" gradientUnits="userSpaceOnUse" x1="238.0081" y1="176.1983" x2="351.98" y2="71.1073">
			<stop  offset="0" style="stop-color:#7CE490"/>
			<stop  offset="1" style="stop-color:#3AC69A"/>
		</linearGradient>
		<path class="st17" d="M233.2,182.4c-0.3,0-0.6-0.1-0.8-0.4c-0.4-0.4-0.4-1.2,0.1-1.6L361.8,59.8c0.4-0.4,1.2-0.4,1.6,0.1
			c0.4,0.4,0.4,1.2-0.1,1.6L234,182.1C233.8,182.3,233.5,182.4,233.2,182.4z"/>
	</g>
	<g id="dots_1_">
		<circle class="st7" cx="260.7" cy="300.2" r="8.9"/>
		<circle class="st7" cx="220.3" cy="125.4" r="8.9"/>
		<circle class="st7" cx="290.9" cy="251.9" r="8.9"/>
		<g>
			<path class="st5" d="M333,166.2c-1.9,0-3.7-0.3-5.5-0.8c-4.8-1.5-8.7-4.7-11.1-9.1c-2.4-4.4-2.8-9.5-1.4-14.3
				c2.4-7.9,9.6-13.3,17.9-13.3c1.9,0,3.7,0.3,5.5,0.8c4.8,1.5,8.7,4.7,11.1,9.1c2.4,4.4,2.8,9.5,1.4,14.3
				C348.5,160.8,341.3,166.2,333,166.2C333,166.2,333,166.2,333,166.2z"/>
			<path class="st7" d="M333,129.6c1.7,0,3.5,0.3,5.2,0.8c9.4,2.9,14.7,12.8,11.8,22.2c-2.3,7.7-9.4,12.6-17,12.6
				c-1.7,0-3.5-0.3-5.2-0.8c-9.4-2.9-14.7-12.8-11.8-22.2C318.4,134.6,325.4,129.6,333,129.6 M333,127.6c-8.7,0-16.3,5.6-18.9,14
				c-1.5,5-1,10.4,1.4,15.1s6.6,8.1,11.7,9.6c1.9,0.6,3.8,0.9,5.8,0.9c8.7,0,16.3-5.6,18.9-14c1.5-5,1-10.4-1.4-15.1
				c-2.5-4.7-6.6-8.1-11.7-9.6C336.9,127.9,335,127.6,333,127.6L333,127.6z"/>
		</g>
		<circle class="st11" cx="362.6" cy="60.6" r="8.9"/>
		<circle class="st11" cx="212.4" cy="270" r="8.9"/>
	</g>
</g>
</svg>
